<?xml version="1.0" encoding="UTF-8"?>
<svg width="512" height="512" viewBox="0 0 512 512" fill="none" xmlns="http://www.w3.org/2000/svg">
  <rect width="512" height="512" rx="80" fill="url(#gradient)"/>
  <defs>
    <linearGradient id="gradient" x1="0%" y1="0%" x2="100%" y2="100%">
      <stop offset="0%" style="stop-color:#3b82f6;stop-opacity:1" />
      <stop offset="50%" style="stop-color:#6366f1;stop-opacity:1" />
      <stop offset="100%" style="stop-color:#8b5cf6;stop-opacity:1" />
    </linearGradient>
  </defs>
  
  <!-- Brain Icon -->
  <g transform="translate(156, 156)">
    <path d="M200 160C200 195.346 171.346 224 136 224C100.654 224 72 195.346 72 160C72 124.654 100.654 96 136 96C171.346 96 200 124.654 200 160Z" fill="white" opacity="0.9"/>
    <path d="M136 128C153.673 128 168 142.327 168 160C168 177.673 153.673 192 136 192C118.327 192 104 177.673 104 160C104 142.327 118.327 128 136 128Z" fill="#3b82f6"/>
    
    <!-- Statistical symbols -->
    <circle cx="120" cy="140" r="8" fill="white"/>
    <circle cx="152" cy="140" r="8" fill="white"/>
    <circle cx="136" cy="180" r="8" fill="white"/>
    
    <!-- Chart lines -->
    <path d="M100 100L116 116L132 108L148 124L164 116L180 132" stroke="white" stroke-width="4" fill="none" opacity="0.8"/>
  </g>
  
  <!-- Sparkle effect -->
  <g transform="translate(320, 120)">
    <path d="M20 4L24 16L36 20L24 24L20 36L16 24L4 20L16 16L20 4Z" fill="#fbbf24"/>
  </g>
  
  <g transform="translate(120, 320)">
    <path d="M12 2L14 10L22 12L14 14L12 22L10 14L2 12L10 10L12 2Z" fill="#10b981"/>
  </g>
</svg>